<?xml version="1.0" encoding="UTF-8" standalone="no"?>
<!-- Created with Inkscape (http://www.inkscape.org/) -->

<svg
   width="256"
   height="256"
   viewBox="0 0 67.733332 67.733333"
   version="1.1"
   id="svg1"
   inkscape:version="1.3 (0e150ed6c4, 2023-07-21)"
   sodipodi:docname="logo.svg"
   xmlns:inkscape="http://www.inkscape.org/namespaces/inkscape"
   xmlns:sodipodi="http://sodipodi.sourceforge.net/DTD/sodipodi-0.dtd"
   xmlns="http://www.w3.org/2000/svg"
   xmlns:svg="http://www.w3.org/2000/svg">
  <sodipodi:namedview
     id="namedview1"
     pagecolor="#ffffff"
     bordercolor="#000000"
     borderopacity="0.25"
     inkscape:showpageshadow="2"
     inkscape:pageopacity="0.0"
     inkscape:pagecheckerboard="0"
     inkscape:deskcolor="#d1d1d1"
     inkscape:document-units="mm"
     inkscape:zoom="5.8480129"
     inkscape:cx="83.27615"
     inkscape:cy="58.566902"
     inkscape:window-width="2560"
     inkscape:window-height="1494"
     inkscape:window-x="-11"
     inkscape:window-y="-11"
     inkscape:window-maximized="1"
     inkscape:current-layer="g7" />
  <defs
     id="defs1">
    <rect
       x="28.593353"
       y="66.871551"
       width="65.949184"
       height="85.318875"
       id="rect6" />
    <rect
       x="7.8401128"
       y="86.241241"
       width="67.793917"
       height="68.2551"
       id="rect5" />
  </defs>
  <g
     inkscape:label="Calque 1"
     inkscape:groupmode="layer"
     id="layer1">
    <circle
       style="fill:#ff5555;stroke:none;stroke-width:7.85926;stroke-linecap:butt;stroke-linejoin:miter;stroke-dasharray:none;stroke-opacity:1;fill-opacity:1"
       id="path7"
       cx="33.866665"
       cy="33.866665"
       r="33.866665" />
    <g
       id="g7"
       transform="translate(-1.8580946)"
       style="fill:#ffffff">
      <g
         fill="#000000"
         fill-opacity="1"
         id="g4"
         transform="matrix(0.35277801,0,0,0.35277801,50.142634,172.26022)"
         style="stroke-width:0;stroke-dasharray:none;fill:#ffffff;stroke:#ffffff;stroke-linecap:butt;stroke-linejoin:miter">
        <text
           xml:space="preserve"
           transform="matrix(2.1042353,0,0,2.1042353,-196.95059,-613.97237)"
           id="text5"
           style="font-style:normal;font-variant:normal;font-weight:normal;font-stretch:normal;font-size:64px;font-family:System-ui;-inkscape-font-specification:System-ui;white-space:pre;shape-inside:url(#rect6);display:inline;fill:#ffffff;stroke:#ffffff;stroke-width:0;stroke-linecap:butt;stroke-linejoin:miter;stroke-dasharray:none"><tspan
             x="28.59375"
             y="124.51938"
             id="tspan2">&gt;</tspan></text>
      </g>
      <g
         fill="#000000"
         fill-opacity="1"
         id="g3"
         transform="matrix(0.75710006,0,0,0.75710006,-98.591349,4.7917057)"
         style="stroke-width:2.06872;stroke-dasharray:none;fill:#ffffff;stroke:#ffffff">
        <g
           id="use2"
           transform="translate(161.39,2.9890001)"
           style="stroke:#ffffff;stroke-width:2.06872;stroke-dasharray:none;stroke-opacity:1;fill:#ffffff">
          <path
             d="m 3.3125,69.390625 c 1.015625,-0.0625 1.5625,-0.765625 1.5625,-1.5625 0,-1.046875 -0.796875,-1.5625 -1.53125,-1.5625 -0.765625,0 -1.5625,0.484375 -1.5625,1.59375 0,1.625 1.59375,2.96875 3.546875,2.96875 4.84375,0 6.65625,-7.453125 8.921875,-16.703125 2.453125,-10.078125 4.53125,-20.234375 6.25,-30.46875 1.171875,-6.796875 2.359375,-13.171875 3.4375,-17.28125 0.390625,-1.5625 1.46875,-5.671875 2.703125,-5.671875 1,0 1.796875,0.609375 1.921875,0.734375 C 27.515625,1.5 26.96875,2.203125 26.96875,3 c 0,1.046875 0.796875,1.5625 1.53125,1.5625 0.765625,0 1.5625,-0.484375 1.5625,-1.59375 C 30.0625,1.25 28.34375,0 26.578125,0 24.15625,0 22.375,3.46875 20.625,9.984375 c -0.09375,0.34375 -4.4375,16.34375 -7.9375,37.1875 C 11.859375,52.046875 10.9375,57.375 9.875,61.8125 9.3125,64.125 7.84375,70.125 5.265625,70.125 4.109375,70.125 3.34375,69.390625 3.3125,69.390625 Z m 0,0"
             id="path4"
             style="stroke:#ffffff;stroke-width:2.06872;stroke-dasharray:none;stroke-opacity:1;fill:#ffffff" />
        </g>
      </g>
      <g
         inkscape:label=""
         transform="translate(56.304371,8.5050109)"
         id="g6"
         style="stroke:#ffffff;stroke-width:1.32292;stroke-dasharray:none;stroke-opacity:1;fill:#ffffff">
        <g
           fill="#000000"
           fill-opacity="1"
           id="g2"
           transform="matrix(-1.5648773,0,0,-1.5648773,291.55634,77.001116)"
           style="stroke:#ffffff;stroke-width:0.84538;stroke-dasharray:none;stroke-opacity:1;fill:#ffffff">
          <g
             id="use1"
             transform="translate(180.936,40.248001)"
             style="stroke:#ffffff;stroke-width:0.84538;stroke-dasharray:none;stroke-opacity:1;fill:#ffffff">
            <path
               d="m 11.25,-8.28125 c -0.140625,-1.390625 -1.015625,-3.046875 -3.25,-3.046875 -3.484375,0 -7.0625,3.546875 -7.0625,7.484375 0,1.515625 1.046875,4.359375 4.421875,4.359375 5.84375,0 8.34375,-8.515625 8.34375,-11.921875 0,-3.5625 -2,-6.3125 -5.171875,-6.3125 -3.59375,0 -4.671875,3.140625 -4.671875,3.8125 0,0.234375 0.15625,0.765625 0.84375,0.765625 0.875,0 1.25,-0.78125 1.25,-1.203125 0,-0.765625 -0.78125,-0.765625 -1.09375,-0.765625 C 5.875,-16.953125 7.75,-17.125 8.421875,-17.125 c 2.1875,0 3.578125,1.734375 3.578125,4.515625 0,1.578125 -0.484375,3.421875 -0.71875,4.328125 z m -5.828125,8.125 c -2.328125,0 -2.71875,-1.828125 -2.71875,-2.859375 0,-1.09375 0.6875,-3.65625 1.0625,-4.5625 0.328125,-0.75 1.734375,-3.25 4.3125,-3.25 2.25,0 2.78125,1.953125 2.78125,3.296875 0,1.828125 -1.609375,7.375 -5.4375,7.375 z m 0,0"
               id="path2"
               style="stroke:#ffffff;stroke-width:0.84538;stroke-dasharray:none;stroke-opacity:1;fill:#ffffff" />
          </g>
        </g>
      </g>
    </g>
    <circle
       style="fill:#ffffff;stroke:none;stroke-width:1.23279;stroke-linecap:butt;stroke-linejoin:miter;stroke-dasharray:none;stroke-opacity:1"
       id="path8"
       cx="25.686386"
       cy="18.940105"
       r="4.2333331" />
  </g>
</svg>
